<svg width="94" height="82" viewBox="0 0 94 82" fill="none" xmlns="http://www.w3.org/2000/svg">
<path d="M90.2692 0.961548H79.3615C79.2577 0.961548 79.1692 1.0077 79.0692 1.01924C78.6986 1.05206 78.3385 1.15964 78.0106 1.33547C77.6828 1.51131 77.3939 1.75176 77.1615 2.04232C76.9229 2.33445 76.7463 2.67206 76.6423 3.03462C76.6115 3.13847 76.5423 3.21924 76.5269 3.32693L74.8731 12.3539L4.28076 16.4808C4.01153 16.4615 3.77307 16.5 3.47307 16.5308C3.0703 16.5668 2.6796 16.6872 2.32634 16.884C1.97307 17.0808 1.66513 17.3496 1.4225 17.6731C1.17987 17.9966 1.00797 18.3676 0.917957 18.7618C0.827941 19.156 0.821821 19.5648 0.899994 19.9615L5.81922 46.7885C6.9423 50.9462 10.4077 55.1462 15.6192 55.1462H67.0423L65.9423 61.1654H22.6731C20.0388 61.1684 17.5133 62.216 15.6502 64.0783C13.7872 65.9406 12.7387 68.4658 12.7346 71.1C12.7346 76.5808 17.1961 81.0385 22.6731 81.0385C28.15 81.0385 32.6077 76.5808 32.6077 71.1C32.6077 69.6077 32.2538 68.2039 31.6615 66.9346H58.2308C57.6385 68.2039 57.2846 69.6077 57.2846 71.1C57.2846 76.5808 61.7423 81.0385 67.2192 81.0385C72.6961 81.0385 77.1577 76.5808 77.1577 71.1C77.1518 69.2516 76.6294 67.4417 75.6494 65.8745C74.6693 64.3073 73.2708 63.0453 71.6115 62.2308L81.7654 6.73078H90.2692C91.0343 6.73078 91.768 6.42687 92.309 5.88589C92.8499 5.34492 93.1538 4.61121 93.1538 3.84616C93.1538 3.08112 92.8499 2.3474 92.309 1.80643C91.768 1.26546 91.0343 0.961548 90.2692 0.961548ZM70.1615 38.0962L57.9385 38.2885L58.6038 31.2039L71.4923 30.8192L70.1615 38.0962ZM9.0923 32.6885L21.3077 32.3231L22.1077 38.85L10.2538 39.0346L9.0923 32.6885ZM25.1692 32.2039L38.5923 31.8039V38.5923L25.9769 38.7885L25.1692 32.2039ZM38.5923 27.9539L24.6961 28.3692L23.8115 21.1192L38.5923 20.2539V27.9539ZM42.4385 20.0308L55.8615 19.2462L55.0923 27.4577L42.4385 27.8385V20.0308ZM38.5923 42.4385V49.3769H27.2692L26.4423 42.6308L38.5961 42.4385H38.5923ZM42.4385 42.3769L53.7077 42.2L53.0308 49.3769H42.4385V42.3769ZM42.4385 38.5308V31.6846L54.7308 31.3192L54.0692 38.3462L42.4385 38.5308ZM72.2038 26.9462L58.9654 27.3423L59.75 19.0192L73.8038 18.1962L72.2038 26.9462ZM19.9615 21.3423L20.8346 28.4846L8.38845 28.8577C7.98199 26.599 7.54991 24.345 7.0923 22.0962L19.9615 21.3423ZM11.4385 45.5154L10.9538 42.8731L22.5731 42.6885L23.3923 49.3808H15.6192C13.15 49.3808 11.7731 46.7 11.4423 45.5154H11.4385ZM56.8923 49.3769L57.5731 42.1385L69.4538 41.9539L68.0923 49.3769H56.8923ZM26.8346 71.1C26.8346 73.4 24.9654 75.2692 22.6692 75.2692C20.3731 75.2692 18.5 73.4 18.5 71.1C18.5329 70.0167 18.9864 68.9888 19.7643 68.2341C20.5423 67.4794 21.5835 67.0574 22.6673 67.0574C23.7511 67.0574 24.7924 67.4794 25.5703 68.2341C26.3482 68.9888 26.8017 70.0167 26.8346 71.1ZM67.2192 75.2692C66.1519 75.2131 65.1468 74.7495 64.4112 73.9741C63.6756 73.1988 63.2655 72.1707 63.2655 71.1019C63.2655 70.0331 63.6756 69.0051 64.4112 68.2297C65.1468 67.4544 66.1519 66.9908 67.2192 66.9346C68.3025 66.9675 69.3305 67.421 70.0851 68.199C70.8398 68.9769 71.2618 70.0181 71.2618 71.1019C71.2618 72.1858 70.8398 73.227 70.0851 74.0049C69.3305 74.7828 68.3025 75.2363 67.2192 75.2692Z" fill="white"/>
</svg>
